<?xml version="1.0" encoding="UTF-8" standalone="no"?>
<svg width="28" height="28" viewBox="0 0 28 28" fill="none" xmlns="http://www.w3.org/2000/svg">

  <!-- Folder -->
  <path d="M0,2v2 4 2 15H2 28V23 10 8H20V6H18V4H16V2H2Z
           M2,4h12v2h2V8H2Z
           M2,10h16 2 6V23H2Z" fill="#ffffff" />

  <!-- Obrazek w folderze -->
  <!-- Ramka obrazka -->

  <!-- Wnętrze obrazka -->

  <!-- Góry (większe i czytelne) -->
  <rect x="5"  y="20" width="2" height="2" fill="#ffffff"/>
  <rect x="7"  y="18" width="2" height="2" fill="#ffffff"/>
  <rect x="9" y="16" width="2" height="2" fill="#ffffff"/>
  <rect x="11" y="18" width="2" height="2" fill="#ffffff"/>
  <rect x="13" y="20" width="2" height="2" fill="#ffffff"/>
  <rect x="15" y="18" width="2" height="2" fill="#ffffff"/>
  <rect x="17" y="20" width="2" height="2" fill="#ffffff"/>

  <!-- Słońce (większe) -->
  <rect x="20" y="13" width="3" height="3" fill="#ffffff"/>

</svg>
