<?xml version="1.0" encoding="UTF-8"?>
<!DOCTYPE svg PUBLIC "-//W3C//DTD SVG 1.1//EN" "http://www.w3.org/Graphics/SVG/1.1/DTD/svg11.dtd">
<svg xmlns="http://www.w3.org/2000/svg" version="1.1" width="144px" height="144px" style="shape-rendering:geometricPrecision; text-rendering:geometricPrecision; image-rendering:optimizeQuality; fill-rule:evenodd; clip-rule:evenodd" xmlns:xlink="http://www.w3.org/1999/xlink">
<g><path style="opacity:1" fill="#fefffe" d="M 79.5,-0.5 C 100.833,-0.5 122.167,-0.5 143.5,-0.5C 143.5,20.8333 143.5,42.1667 143.5,63.5C 138.167,63.5 132.833,63.5 127.5,63.5C 127.5,52.8333 127.5,42.1667 127.5,31.5C 122.167,31.5 116.833,31.5 111.5,31.5C 111.5,26.1667 111.5,20.8333 111.5,15.5C 100.833,15.5 90.1667,15.5 79.5,15.5C 79.5,10.1667 79.5,4.83333 79.5,-0.5 Z"/></g>
<g><path style="opacity:1" fill="#fefffe" d="M -0.5,15.5 C 20.8333,15.5 42.1667,15.5 63.5,15.5C 63.5,20.8333 63.5,26.1667 63.5,31.5C 47.5,31.5 31.5,31.5 15.5,31.5C 15.5,63.5 15.5,95.5 15.5,127.5C 47.5,127.5 79.5,127.5 111.5,127.5C 111.5,111.5 111.5,95.5 111.5,79.5C 116.833,79.5 122.167,79.5 127.5,79.5C 127.5,100.833 127.5,122.167 127.5,143.5C 84.8333,143.5 42.1667,143.5 -0.5,143.5C -0.5,100.833 -0.5,58.1667 -0.5,15.5 Z"/></g>
<g><path style="opacity:1" fill="#fefffe" d="M 111.5,31.5 C 111.5,36.8333 111.5,42.1667 111.5,47.5C 106.167,47.5 100.833,47.5 95.5,47.5C 95.5,42.1667 95.5,36.8333 95.5,31.5C 100.833,31.5 106.167,31.5 111.5,31.5 Z"/></g>
<g><path style="opacity:1" fill="#fefffe" d="M 95.5,47.5 C 95.5,52.8333 95.5,58.1667 95.5,63.5C 90.1667,63.5 84.8333,63.5 79.5,63.5C 79.5,58.1667 79.5,52.8333 79.5,47.5C 84.8333,47.5 90.1667,47.5 95.5,47.5 Z"/></g>
<g><path style="opacity:1" fill="#fefffe" d="M 79.5,63.5 C 79.5,68.8333 79.5,74.1667 79.5,79.5C 74.1667,79.5 68.8333,79.5 63.5,79.5C 63.5,74.1667 63.5,68.8333 63.5,63.5C 68.8333,63.5 74.1667,63.5 79.5,63.5 Z"/></g>
<g><path style="opacity:1" fill="#fefffe" d="M 63.5,79.5 C 63.5,84.8333 63.5,90.1667 63.5,95.5C 58.1667,95.5 52.8333,95.5 47.5,95.5C 47.5,90.1667 47.5,84.8333 47.5,79.5C 52.8333,79.5 58.1667,79.5 63.5,79.5 Z"/></g>
</svg>
